<svg xmlns="http://www.w3.org/2000/svg" xmlns:xlink="http://www.w3.org/1999/xlink" width="393" zoomAndPan="magnify" viewBox="0 0 294.75 164.249993" height="219" preserveAspectRatio="xMidYMid meet" version="1.0"><defs><g/></defs><g fill="#21bf48" fill-opacity="1"><g transform="translate(38.791085, 112.670806)"><g><path d="M 2.875 0 L 2.875 -65.15625 L 22.75 -65.15625 L 28.21875 -25.40625 L 33.6875 -65.15625 L 53.703125 -65.15625 L 53.703125 0 L 41.796875 0 L 41.796875 -46.953125 L 34.28125 0 L 22.609375 0 L 14.640625 -46.953125 L 14.640625 0 Z M 2.875 0 "/></g></g></g><g fill="#21bf48" fill-opacity="1"><g transform="translate(91.204619, 112.670806)"><g><path d="M 13.34375 0.609375 C 9.195312 0.609375 6.351562 -0.628906 4.8125 -3.109375 C 3.269531 -5.585938 2.5 -9.28125 2.5 -14.1875 L 2.5 -55.53125 L 15.859375 -55.53125 L 15.859375 -16.84375 C 15.859375 -16.488281 15.859375 -15.539062 15.859375 -14 C 15.859375 -12.457031 16.097656 -11.367188 16.578125 -10.734375 C 17.054688 -10.097656 17.800781 -9.78125 18.8125 -9.78125 C 20.175781 -9.78125 21.035156 -10.347656 21.390625 -11.484375 C 21.742188 -12.628906 21.921875 -14.265625 21.921875 -16.390625 L 21.921875 -16.84375 L 22 -55.53125 L 35.203125 -55.53125 L 35.203125 0 L 21.921875 0 L 21.921875 -5.921875 C 21.015625 -3.585938 19.953125 -1.914062 18.734375 -0.90625 C 17.523438 0.101562 15.726562 0.609375 13.34375 0.609375 Z M 13.34375 0.609375 "/></g></g></g><g fill="#21bf48" fill-opacity="1"><g transform="translate(124.882673, 112.670806)"><g><path d="M 17.90625 0.609375 C 6.925781 0.609375 1.4375 -4.953125 1.4375 -16.078125 L 1.515625 -20.484375 L 14.796875 -20.484375 L 14.875 -13.953125 C 14.875 -12.640625 15.125 -11.640625 15.625 -10.953125 C 16.132812 -10.273438 16.96875 -9.9375 18.125 -9.9375 C 19.894531 -9.9375 20.78125 -11.378906 20.78125 -14.265625 C 20.78125 -16.390625 20.363281 -18.054688 19.53125 -19.265625 C 18.695312 -20.484375 17.367188 -21.773438 15.546875 -23.140625 L 8.5 -28.59375 C 6.070312 -30.46875 4.328125 -32.40625 3.265625 -34.40625 C 2.203125 -36.40625 1.671875 -39.222656 1.671875 -42.859375 C 1.671875 -45.691406 2.414062 -48.101562 3.90625 -50.09375 C 5.394531 -52.09375 7.378906 -53.597656 9.859375 -54.609375 C 12.335938 -55.628906 15.09375 -56.140625 18.125 -56.140625 C 28.894531 -56.140625 34.28125 -50.773438 34.28125 -40.046875 L 34.28125 -38.984375 L 20.5625 -38.984375 L 20.5625 -41.109375 C 20.5625 -42.429688 20.34375 -43.554688 19.90625 -44.484375 C 19.476562 -45.421875 18.757812 -45.890625 17.75 -45.890625 C 16.84375 -45.890625 16.144531 -45.625 15.65625 -45.09375 C 15.175781 -44.5625 14.9375 -43.84375 14.9375 -42.9375 C 14.9375 -40.914062 15.722656 -39.347656 17.296875 -38.234375 L 25.484375 -32.234375 C 28.421875 -30.066406 30.671875 -27.703125 32.234375 -25.140625 C 33.804688 -22.585938 34.59375 -19.363281 34.59375 -15.46875 C 34.59375 -10.3125 33.125 -6.34375 30.1875 -3.5625 C 27.257812 -0.78125 23.164062 0.609375 17.90625 0.609375 Z M 17.90625 0.609375 "/></g></g></g><g fill="#21bf48" fill-opacity="1"><g transform="translate(156.740269, 112.670806)"><g><path d="M 2.578125 -59.25 L 2.578125 -68.5 L 15.859375 -68.5 L 15.859375 -59.25 Z M 2.578125 0 L 2.578125 -55.53125 L 15.859375 -55.53125 L 15.859375 0 Z M 2.578125 0 "/></g></g></g><g fill="#21bf48" fill-opacity="1"><g transform="translate(171.00017, 112.670806)"><g><path d="M 19.34375 0.609375 C 13.269531 0.609375 8.894531 -0.929688 6.21875 -4.015625 C 3.539062 -7.097656 2.203125 -11.828125 2.203125 -18.203125 L 2.203125 -35.34375 C 2.203125 -40.15625 2.71875 -44.0625 3.75 -47.0625 C 4.789062 -50.070312 6.535156 -52.335938 8.984375 -53.859375 C 11.441406 -55.378906 14.84375 -56.140625 19.1875 -56.140625 C 23.945312 -56.140625 27.816406 -54.898438 30.796875 -52.421875 C 33.785156 -49.941406 35.28125 -46.476562 35.28125 -42.03125 L 35.28125 -33.53125 L 21.765625 -33.53125 L 21.765625 -41.34375 C 21.765625 -42.8125 21.5625 -43.9375 21.15625 -44.71875 C 20.757812 -45.5 19.976562 -45.890625 18.8125 -45.890625 C 16.632812 -45.890625 15.546875 -44.347656 15.546875 -41.265625 L 15.546875 -14.34375 C 15.546875 -13.070312 15.8125 -11.992188 16.34375 -11.109375 C 16.875 -10.222656 17.671875 -9.78125 18.734375 -9.78125 C 19.796875 -9.78125 20.59375 -10.207031 21.125 -11.0625 C 21.65625 -11.925781 21.894531 -13.039062 21.84375 -14.40625 L 21.765625 -23.75 L 35.28125 -23.75 L 35.28125 -14.03125 C 35.28125 -9.476562 33.800781 -5.898438 30.84375 -3.296875 C 27.882812 -0.691406 24.050781 0.609375 19.34375 0.609375 Z M 19.34375 0.609375 "/></g></g></g><g fill="#21bf48" fill-opacity="1"><g transform="translate(204.071395, 112.670806)"><g><path d="M 12.75 0.609375 C 8.445312 0.609375 5.5 -0.816406 3.90625 -3.671875 C 2.3125 -6.535156 1.515625 -10.625 1.515625 -15.9375 C 1.515625 -20.28125 2.082031 -23.613281 3.21875 -25.9375 C 4.363281 -28.269531 5.945312 -29.976562 7.96875 -31.0625 C 9.988281 -32.15625 13.070312 -33.359375 17.21875 -34.671875 L 20.859375 -35.875 L 20.859375 -41.578125 C 20.859375 -43.035156 20.566406 -44.15625 19.984375 -44.9375 C 19.398438 -45.726562 18.707031 -46.125 17.90625 -46.125 C 17.195312 -46.125 16.578125 -45.796875 16.046875 -45.140625 C 15.515625 -44.484375 15.25 -43.597656 15.25 -42.484375 L 15.25 -39.140625 L 2.359375 -39.140625 L 2.359375 -40.96875 C 2.359375 -46.425781 3.632812 -50.316406 6.1875 -52.640625 C 8.738281 -54.972656 12.894531 -56.140625 18.65625 -56.140625 C 23.257812 -56.140625 27.003906 -54.9375 29.890625 -52.53125 C 32.773438 -50.125 34.21875 -46.722656 34.21875 -42.328125 L 34.21875 0 L 21.015625 0 L 21.015625 -6.59375 C 20.359375 -4.320312 19.304688 -2.550781 17.859375 -1.28125 C 16.421875 -0.0195312 14.71875 0.609375 12.75 0.609375 Z M 17.984375 -9.703125 C 18.992188 -9.703125 19.710938 -10.117188 20.140625 -10.953125 C 20.566406 -11.796875 20.78125 -12.820312 20.78125 -14.03125 L 20.78125 -29.515625 C 18.8125 -28.753906 17.359375 -27.789062 16.421875 -26.625 C 15.484375 -25.457031 15.015625 -23.835938 15.015625 -21.765625 L 15.015625 -14.640625 C 15.015625 -11.347656 16.003906 -9.703125 17.984375 -9.703125 Z M 17.984375 -9.703125 "/></g></g></g><g fill="#21bf48" fill-opacity="1"><g transform="translate(236.535811, 112.670806)"><g><path d="M 2.65625 0 L 2.65625 -65.546875 L 16.15625 -65.546875 L 16.15625 0 Z M 2.65625 0 "/></g></g></g><g fill="#a6a6a6" fill-opacity="1"><g transform="translate(98.507959, 46.333843)"><g><path d="M 0.578125 -22.09375 L 0.578125 -23.390625 L 16.875 -23.390625 L 16.875 -22.09375 L 9.5 -22.09375 L 9.5 0 L 7.984375 0 L 7.984375 -22.09375 Z M 0.578125 -22.09375 "/></g></g></g><g fill="#a6a6a6" fill-opacity="1"><g transform="translate(114.069838, 46.333843)"><g><path d="M 3.078125 0 L 3.078125 -24.359375 L 4.578125 -24.359375 L 4.578125 -13.390625 L 4.609375 -13.390625 C 4.992188 -14.390625 5.707031 -15.269531 6.75 -16.03125 C 7.789062 -16.800781 8.988281 -17.1875 10.34375 -17.1875 C 12.050781 -17.1875 13.363281 -16.644531 14.28125 -15.5625 C 15.207031 -14.488281 15.671875 -12.890625 15.671875 -10.765625 L 15.671875 0 L 14.234375 0 L 14.234375 -10.484375 C 14.234375 -14.128906 12.851562 -15.953125 10.09375 -15.953125 C 8.664062 -15.953125 7.390625 -15.375 6.265625 -14.21875 C 5.140625 -13.0625 4.578125 -11.695312 4.578125 -10.125 L 4.578125 0 Z M 3.078125 0 "/></g></g></g><g fill="#a6a6a6" fill-opacity="1"><g transform="translate(130.669896, 46.333843)"><g><path d="M 1.6875 -8.4375 C 1.6875 -11.007812 2.347656 -13.109375 3.671875 -14.734375 C 5.003906 -16.367188 6.773438 -17.1875 8.984375 -17.1875 C 11.210938 -17.1875 12.960938 -16.378906 14.234375 -14.765625 C 15.515625 -13.160156 16.15625 -11.191406 16.15625 -8.859375 C 16.15625 -8.722656 16.148438 -8.554688 16.140625 -8.359375 C 16.128906 -8.171875 16.125 -8.015625 16.125 -7.890625 L 3.171875 -7.890625 C 3.171875 -5.921875 3.695312 -4.222656 4.75 -2.796875 C 5.800781 -1.367188 7.242188 -0.65625 9.078125 -0.65625 C 10.242188 -0.65625 11.304688 -0.953125 12.265625 -1.546875 C 13.234375 -2.140625 13.96875 -2.890625 14.46875 -3.796875 L 15.734375 -3.34375 C 15.148438 -2.175781 14.296875 -1.226562 13.171875 -0.5 C 12.046875 0.21875 10.679688 0.578125 9.078125 0.578125 C 6.804688 0.578125 5.003906 -0.253906 3.671875 -1.921875 C 2.347656 -3.597656 1.6875 -5.769531 1.6875 -8.4375 Z M 3.21875 -9.015625 L 14.65625 -9.015625 C 14.65625 -10.921875 14.132812 -12.550781 13.09375 -13.90625 C 12.0625 -15.269531 10.691406 -15.953125 8.984375 -15.953125 C 7.210938 -15.953125 5.816406 -15.253906 4.796875 -13.859375 C 3.785156 -12.472656 3.257812 -10.859375 3.21875 -9.015625 Z M 3.21875 -9.015625 "/></g></g></g></svg>